<svg width="40mm" height="30mm" viewBox="0 0 40 30" xmlns="http://www.w3.org/2000/svg"><path class="cls-1" d="M5.682 25.419c0 .058.043.104.032.162a.25.25 0 0 1-.16.137.238.238 0 0 1-.264-.148.23.23 0 0 1 .113-.244.238.238 0 0 1 .29.093zM6.039 25.95a.247.247 0 0 1-.14.29.264.264 0 0 1-.252-.163.212.212 0 0 1 .113-.24.261.261 0 0 1 .29.113ZM16.956 27.807a.235.235 0 0 1-.096.096M17.847 20.86a.189.189 0 1 0-.186-.186.186.186 0 0 0 .186.186zM26.468 12.99h-6.706v5.412c0 .525.22.98.528 1.12l2.577 1.54a.32.32 0 0 0 .235.108.29.29 0 0 0 .209-.084l2.612-1.564c.29-.14.525-.58.525-1.12V12.99Zm-4.478 1.567h-.58V13.17h.58zm-.432.481.084-.084-.052-.095h.107l.067-.114.064.114h.107l-.049.095.081.084-.104.02v.12l-.099-.076-.101.076v-.122zm-1.616 1.742v-1.332h.702v1.317zm.116-1.907h.107l.064-.113.064.113h.11l-.05.096.082.084-.104.02v.12l-.102-.076-.099.075v-.136l-.104-.02.081-.085-.05-.095zm.795 1.338.125.006.064-.114.063.114h.11l-.052.095.085.087-.105.018v.09l-.101-.076-.1.076v-.12l-.104-.017.082-.087-.05-.095zm.467-1.056c0-.035-.052-.047-.072-.047-.02 0-.087.105-.14.107-.052.003-.066 0-.066-.04s.078-.064.11-.093c-.435 0-.444.197-.51.197-.114 0 .095-.209.156-.27-.09 0-.14-.121-.238-.177.046-.063.072-.037.128 0 0-.046.034-.098.136-.098.194 0 .14.188.171.188.032 0 0-.188.128-.188.194 0 .435.496.215.496-.093 0-.018-.073-.018-.084zm-.499-1.451.081-.085-.05-.095h.108l.064-.114.064.11h.11l-.052.096.084.085-.104.02v.119l-.102-.076-.099.076v-.119l-.104-.02zm-.177-.52v1.387h-.69V13.17zm1.335 7.153-1.582-.972a1.16 1.16 0 0 1-.432-.894v-1.523h2.031v3.375zm-.58-3.557v-1.332h.58v1.317zm2.646 3.668-.74.44a.29.29 0 0 1-.194.07.31.31 0 0 1-.198-.072l-.737-.438v-3.483h1.884v3.483zm0-3.668h-1.872v-3.61h1.884v3.595zm2.223 1.706a1.16 1.16 0 0 1-.435.894l-1.605.957v-3.39h2.031v1.524zm0-1.706h-2.031v-3.61h2.031v3.595z" style="fill:#fff;stroke-width:.290194;fill-opacity:1" transform="translate(-2.923 -4.365)"/><path class="cls-1" d="M21.883 18.187c0-.02-.255.081-.186.076 0-.073.143-.221.204-.276 0-.084-.12 0-.236.052.384-.546.137-.322-.075-.29.34-.369.25-.363 0-.247.197-.157.238-.345.209-.397-.186.246-.357.206-.357.435a.905.905 0 0 1-.13.482c-.1.107-.024-.404-.29-.404-.085 0-.291 0-.343.096.055 0 .133.136.133.189 0 .052.05.203-.04.203s-.192-.186-.192-.29v-.198c0-.217-.354-.52-.496-.52 0 .152.197.187.197.378-.084 0-.203-.157-.203-.058s.125.113.125.197c0 .085-.142-.029-.142.061s.078.064.095.143c-.058-.015-.11 0-.119.023-.008.023 0 .058.061.084-.02.017-.037.064-.037.189 0 .429.267.626.464.626.14 0 .119-.098.133-.145 0 .073.076-.035.076.09s-.136.076-.136.189.214 0 .214.165a2.237 2.237 0 0 1-.023.29c0 .053.224-.075.209-.098.055.02.052.18.154.174.101-.006.078-.163.128-.177-.03 0 .203.154.203.081 0-.2-.082-.116-.082-.252 0-.137.29-.102.233-.166-.058-.064-.061-.023-.09-.116 0 .018-.218-.316.046-.145s.308-.42.29-.453zM29.034 19.603a.197.197 0 1 0-.221-.194.209.209 0 0 0 .22.194ZM28.143 20.134a.197.197 0 1 0-.22-.194.209.209 0 0 0 .22.194zM17.548 21.356a.197.197 0 1 0-.22-.194.209.209 0 0 0 .22.194zM18.232 21.414a.197.197 0 1 0-.22-.194.209.209 0 0 0 .22.194zM37.31 12.168a1.376 1.376 0 0 1 .162 1.451c-.127 0-.104-.174-.127-.27-.235-.435-.421-.989-.21-1.482.152.023.094.211.175.29zM9.318 12.7a2.09 2.09 0 0 0 0 .928c-.058.061-.047-.058-.105-.046-.455-.328-.246-.978-.362-1.451a.09.09 0 0 1 .116-.024.839.839 0 0 1 .35.58zM38.317 12.734c.07.13-.061.259-.154.32a.308.308 0 0 1-.29-.131.273.273 0 0 1 .142-.308.305.305 0 0 1 .305.12zM8.537 13.35a.342.342 0 0 1-.15.252c-.07 0-.175 0-.218-.058a.212.212 0 0 1-.047-.23.27.27 0 0 1 .218-.1c.081.034.162.057.197.15zM38.772 13.454a.255.255 0 0 1 0 .186.267.267 0 0 1-.316.107.334.334 0 0 1-.13-.2.369.369 0 0 1 .2-.212.377.377 0 0 1 .246.119zM38.1 13.466c.092.046.022.162 0 .235-.059.058-.14.15-.248.116-.058-.058-.127-.058-.15-.14a.261.261 0 0 1 .162-.272.29.29 0 0 1 .224.06zM37.252 13.64c0 .13 0 .29-.142.319a.22.22 0 0 1-.267-.165.29.29 0 0 1 .174-.29.322.322 0 0 1 .235.127zM9.88 13.7c.036.117-.083.19-.153.247a.235.235 0 0 1-.232-.13c-.084-.082.023-.154.046-.224a.218.218 0 0 1 .34.108zM9.1 13.823a.235.235 0 0 1-.128.22.209.209 0 0 1-.229-.104.197.197 0 0 1 .105-.267c.124-.047.206.07.252.15zM34.422 13.782a2.47 2.47 0 0 1 .233.847c-.047.224.034.52-.128.674-.163-.061-.174-.262-.29-.366-.21-.412-.024-.897.046-1.297.096-.035.096.084.13.142zM8.56 14.008c.032.14-.07.21-.15.29-.14.035-.23-.07-.29-.162a.29.29 0 0 1 .147-.29.29.29 0 0 1 .29.15zM36.268 14.264a1.68 1.68 0 0 1 .058 1.131l-.07.058a4.573 4.573 0 0 1-.478-.951 1.538 1.538 0 0 1 .142-.674c.081-.058.127 0 .162.084a.461.461 0 0 0 .186.352zM37.742 14.052a.29.29 0 0 1-.174.29.209.209 0 0 1-.27-.142.252.252 0 0 1 .128-.29c.13-.073.258.046.316.139zM9.112 14.496a.25.25 0 0 1-.174.22c-.09.07-.16-.046-.241-.08a.273.273 0 0 1 0-.268c.035-.07.116-.07.185-.093.102.058.206.105.23.22zM9.704 14.36c.046.118-.082.176-.128.234-.142.047-.212-.058-.27-.142-.058-.084.047-.188.128-.258.142-.035.212.058.27.165zM38.07 14.325c0 .153-.247.304-.27.458a1.16 1.16 0 0 1-.725.659.537.537 0 0 1-.267.154c-.023-.235.186-.447.316-.66a1.71 1.71 0 0 1 .946-.611z" style="fill:#fff;stroke-width:.290194;fill-opacity:1" transform="translate(-2.923 -4.365)"/><path class="cls-1" d="M8.955 14.818a4.553 4.553 0 0 0 .479.554.096.096 0 0 1-.081.12c-.58-.039-.958-.628-1.24-1.04.035-.127.189-.023.27-.035.198.154.421.2.58.4zM38.233 14.983a1.503 1.503 0 0 1-.726 1.271c-.128.05-.267.177-.397.096a5.894 5.894 0 0 1 1.03-1.367zM35.99 15.326a.29.29 0 0 1-.212.34c-.128 0-.21-.094-.27-.186a.25.25 0 0 1 .165-.262.194.194 0 0 1 .14-.034c.07.023.104.08.165.142zM8.247 15.494a6.323 6.323 0 0 1 .624.543c-.151.104-.334 0-.508 0-.392-.14-.656-.473-1.06-.58 0-.128.163-.082.245-.117a2.098 2.098 0 0 1 .699.151z" style="fill:#fff;stroke-width:.290194;fill-opacity:1" transform="translate(-2.923 -4.365)"/><path class="cls-1" d="M20.836 11.945c-.656-.258-1.089.424-1.756.342-.081.047-.058.128-.105.189-.046.061-.092 0-.127 0-.035-.29-.128-.543-.163-.813-.072-.118-.038-.29-.096-.4-.374-1.024.915-.25 1.161-.847.224-.52-.432-.58-.63-.943v-.154c-.188-.189-.385-.247-.504-.494a1.669 1.669 0 0 0 .04-.92c0-.07-.058-.165-.162-.13a20.27 20.27 0 0 0-.58.85 6.602 6.602 0 0 0-.709-.52c-.177-.023-.34-.2-.537-.127a.157.157 0 0 0 .035.174 1.686 1.686 0 0 0 .58 1.16l.035.178c-.209.482-.15 1.036-.209 1.555a8.636 8.636 0 0 1-2.539 3.567c-.664.754-1.45 1.486-1.567 2.522-.035.165.026.362-.104.481a4.063 4.063 0 0 1-1.089-.58c-.536-.377-1.308-.33-1.66-1.013-.139-.27.035-.54.166-.74.398-.377.337-1.05.128-1.509-.047 0-.058.047-.093.058-.035.697-.58 1.178-.375 1.945.047.223.163.365.221.58a1.802 1.802 0 0 1-.267-.058 2.867 2.867 0 0 0-.783-.107c-.54.246-1.274-.059-1.707.435-.072 0-.165.023-.142.13.258 0 .502.07.76.058.41.07.68-.27.958-.423h.064c.116-.12.313-.047.467-.07.737.081 1.309.435 1.918.801v.046c-.235.105-.505.177-.737.305a1.59 1.59 0 0 0-.65.775c-.186.29.058.554.177.8 0 .12.023.26.128.309.374-.4.023-.897.081-1.356a.955.955 0 0 1 .76-.612c.668-.29 1.161.258 1.683.58a8.073 8.073 0 0 1-.055 1.585 1.451 1.451 0 0 1-.548.081c-.926.07-1.651.58-2.481.87-.372.131-.819.12-1.19.259a2.858 2.858 0 0 0 .9-.035c1.16-.165 2.03-1.047 3.261-.894l.023.035a2.751 2.751 0 0 1-.545.755c-.038-.13-.05-.235-.166-.308a.22.22 0 0 0-.27.096.163.163 0 0 0 0 .177.395.395 0 0 0 .259.162c-.023.108-.151.154-.22.25-.329.551-.996.328-1.382.717-.058.084-.27.13-.174.26a1.764 1.764 0 0 0 1.198-.307 38.11 38.11 0 0 1 1.335-1.393 1.396 1.396 0 0 1-.258 1.071 1.364 1.364 0 0 0-.313-.174.29.29 0 0 0-.212.235.69.69 0 0 0 .174.235c-.398.29-.9.29-1.355.435a22.597 22.597 0 0 1-2.548.19c-.41-.024-.87.118-1.263 0-.446.08-.925-.059-1.288.188-.046.058 0 .119 0 .177.54.354 1.277.07 1.883.177h4.6a2.049 2.049 0 0 0 .946-.177c.598-.343.923-.955 1.227-1.556a2.423 2.423 0 0 0 .247-.705 1.016 1.016 0 0 1 .87-.72 5.337 5.337 0 0 1-.188 1.785c-.07.377-.316.743-.162 1.143.034.186.235.186.386.212 1.413-.026 2.829-.084 4.326.024a3.529 3.529 0 0 0 .795.116c.024-.035.105-.047.07-.116a.447.447 0 0 0-.29-.331c-.023-.07-.128-.047-.163-.093-.748-.424-1.648-.2-2.527-.189-.456.047-.911.128-1.297-.13-.174-.212-.047-.87-.047-.87a17.011 17.011 0 0 1 .74-2.29 2.008 2.008 0 0 0 .07-.54 2.295 2.295 0 0 0 .07-.801 5.514 5.514 0 0 1 .362-1.097c.07-.174.128-.363.2-.54a1.767 1.767 0 0 1 .233-.612c.383.24.754.235.937.667l.16.981c0 .058.046.177.127.107.29-.203.212-.65.212-.954.07-.366-.189-.543-.29-.87a1.425 1.425 0 0 1-.218-.34c-.046-.259-.612-.436-.484-.755a.96.96 0 0 1 .397-.67.113.113 0 0 1 .058.081l.142-.096v-.986c.378 0 .944.049 1.33.049a1.41 1.41 0 0 0 .29.128l.093-.128.949-.186c-.404.044-.648-.418-1.03-.418zM21.866 12.363l.087-.018z" style="fill:#fff;stroke-width:.290194;fill-opacity:1" transform="translate(-2.923 -4.365)"/><path class="cls-1" d="M11.692 15.636a.264.264 0 0 1-.175.273c-.095-.038-.165-.05-.223-.142-.058-.093.07-.224.162-.27.096.023.212.035.236.14zM10.92 15.636a.264.264 0 0 1 .046.273c-.081.07-.209.128-.29.035-.081-.093-.142-.154-.084-.247.058-.093.229-.148.328-.06zM27.197 15.773v.017M36.106 15.973c.046.13-.059.223-.151.27-.12-.035-.27-.058-.27-.212a.226.226 0 0 1 .174-.177.23.23 0 0 1 .247.119zM36.727 15.95c.034.058.116.153.023.211a.424.424 0 0 0-.12.093.226.226 0 0 1-.29-.139c-.026-.13.082-.189.175-.25.093-.06.139.038.2.085zM7.919 16.141a.226.226 0 0 1-.31.151.473.473 0 0 1-.09-.15.206.206 0 0 1 .124-.198.29.29 0 0 1 .276.197zM11.927 16.292c0 .093-.12.174-.2.224-.082.049-.198-.085-.256-.166a.235.235 0 0 1 .14-.235.258.258 0 0 1 .316.177zM11.236 16.217a.183.183 0 0 1 .035.188c-.07.058-.174.166-.29.096-.07-.06-.151-.107-.128-.226a.5.5 0 0 1 .177-.14c.093-.023.14.035.209.082zM38.514 16.35a.31.31 0 0 1-.154.224.23.23 0 0 1-.26-.067c-.07-.023-.047-.12-.047-.177a.392.392 0 0 1 .22-.154.412.412 0 0 1 .235.165zM39.26 16.455a.29.29 0 0 1-.224.211c-.07 0-.197-.034-.174-.139a.203.203 0 0 1 .398-.072zM9.318 16.62a.232.232 0 0 1-.14.29c-.08.047-.165 0-.223-.06a.203.203 0 0 1-.058-.236c.023-.104.128-.081.2-.13a.29.29 0 0 1 .22.142zM9.892 16.727c.035.093-.072.128-.095.2a.194.194 0 0 1-.21.024c-.08-.073-.176-.177-.092-.29.093-.174.336-.082.397.06zM37.823 16.666c0 .12-.092.2-.162.273a.203.203 0 0 1-.235-.142.238.238 0 0 1 .13-.223.255.255 0 0 1 .267.092zM38.784 16.855c-.026.107 0 .226-.13.29a.33.33 0 0 1-.29-.046.218.218 0 0 1-.05-.25.29.29 0 0 1 .29-.139c.081.046.105.104.177.14zM8.79 17.14c.046.092-.058.116-.093.162a.23.23 0 0 1-.23-.023c-.08-.047-.046-.163-.034-.22.101-.198.31-.059.357.08zM38.047 17.328c.046 0 .023.081 0 .105a.888.888 0 0 1-.949-.047 3.192 3.192 0 0 0-.467-.258c.058-.154.27-.142.42-.177.34.046.61.365.984.377zM9.434 17.22c.026.096-.047.131-.07.2-.023.07-.14.047-.197.024a.194.194 0 1 1 .267-.223zM10.464 17.293c.046.105-.023.198-.116.259-.093.06-.154-.024-.224-.035-.058-.084-.162-.177-.058-.273.105-.177.317-.081.398.05zM23.981 17.79c-.02.235-.409-.032-.354.29a1.776 1.776 0 0 0 .232.661c.11.157.055.404.047.58a1.06 1.06 0 0 1-.447.378c-.33-.032-.821.168-.975-.244a1.689 1.689 0 0 1-.192-.56c.035-.023.079-.023.113-.055 0-.078-.09-.125-.078-.203.377-.067-.157-.404.166-.424.266.29.702.189.934.49a.87.87 0 0 0 .165.146c-.043-.29-.177-.557-.22-.87a.386.386 0 0 1 .133-.393c.2-.156.366.067.476.189zM11.494 17.717c.035.116-.058.189-.13.247-.073.058-.163-.073-.21-.131-.034-.116.047-.177.117-.235a.255.255 0 0 1 .223.119zM18.708 17.833a1.62 1.62 0 0 1-.142 1.32c0 .093.023.247-.104.235-.317-.435-.082-1.047.046-1.509.023-.116.166-.162.2-.046zM28.717 18.056a1.34 1.34 0 0 1 .023 1.097l-.095.093a2.705 2.705 0 0 1-.267-.835 2.856 2.856 0 0 0 .139-.624c.165-.035.15.177.2.27zM12.405 18.187c-.07.14-.27.177-.397.27a1.402 1.402 0 0 1-1.042.2 1.277 1.277 0 0 1 1.335-.554c.023.05.081.026.104.084zM7.548 18.622c.423.29.54.72.792 1.138.035.046.15.058.104.15-.093.07-.185-.069-.31-.046a1.274 1.274 0 0 1-.703-1.195c0-.047.07-.047.117-.047zM28.259 18.976c0 .116 0 .235-.105.27a.215.215 0 0 1-.27-.127c-.034-.082.035-.128.061-.19a.206.206 0 0 1 .314.062z" style="fill:#fff;stroke-width:.290194;fill-opacity:1" transform="translate(-2.923 -4.365)"/><path class="cls-1" d="M33.195 19.6a5.804 5.804 0 0 1 .081-.647.438.438 0 0 0 .047-.25c.29-.377.853-.258 1.297-.223a2.382 2.382 0 0 0 .58.13.427.427 0 0 1 .29-.057c.375-.2.13-.636.154-.978l-.142-.354a1.416 1.416 0 0 1-.093-.235c-.07-.082-.116-.235-.186-.32-.2-.516-.58-.812-.914-1.224-.58-.778-1.53-1.213-2.466-1.518-.938-.305-1.858.093-2.688.389a.673.673 0 0 1-.455-.496 2.322 2.322 0 0 1 .22-1.248c.035-.29.235-.517.317-.79a8.416 8.416 0 0 0 .478-2.03 1.062 1.062 0 0 0-.632-.93.636.636 0 0 0-.642.128 1.698 1.698 0 0 1-.76.685c-.023.2.22.07.29.14.256.049.549-.035.76.13a2.002 2.002 0 0 1-.493 1.213 9.286 9.286 0 0 0-1.062 1.837l-.046-.046.055 2.878c.374.621.839 1.326 1.535 1.561.372.305.842.67 1.344.401.27-.084.29.29.42.447.14.435-.174.743-.2 1.14l-.29.65c-.351.682-.667 1.414-1.204 1.991-.177 0-.29.186-.456.2-.096.128-.29.035-.397.082-.363.153-.871.058-1.123.4a.16.16 0 0 0 .092.058c.714 0 1.51.061 2.27.023a.29.29 0 0 0 .185-.223c-.104-.2.035-.377.128-.528.061-.29.247-.462.328-.732.247-.481.528-.954.795-1.436l.363-.58a4.17 4.17 0 0 1 .363-.66 1.648 1.648 0 0 0 .211-.318c0-.116-.046-.166-.118-.247.08-.081.211-.058.316-.081a1.315 1.315 0 0 1 .656.775l.104.307.047.142-.024.386.047.366a8.46 8.46 0 0 1-.105 1.71c-.2.681-.983.611-1.544.765-.139.093-.409.047-.409.29.68.143 1.474.058 2.2.047.116-.047.14-.154.197-.258.024-.154.174-.29.128-.447-.128-.166 0-.424-.046-.647a.374.374 0 0 0 0-.227c.092-.34.07-.751.142-1.082l.046-.447zM38.947 19.142c-.375.528-.772 1.129-1.425 1.317-.05 0-.096.023-.12-.035.398-.423.61-1.085 1.228-1.236a.377.377 0 0 1 .317-.046zM6.982 19.713c-.058.047 0 .151-.116.163a.186.186 0 0 1-.241-.104.206.206 0 0 1 .15-.256c.09.047.183.081.207.197zM10.394 19.882c.035.107-.08.107-.139.13a1.274 1.274 0 0 1-1.346-.342c0-.046 0-.093.046-.105.479.117 1.042.024 1.45.317zM7.629 19.725a.29.29 0 0 1 .023.174.255.255 0 0 1-.29.105.377.377 0 0 1-.151-.151.29.29 0 0 1 .197-.22.342.342 0 0 1 .218.092zM18.624 19.789c.023.104-.07.177-.14.223a.226.226 0 0 1-.243-.095.168.168 0 0 1 .081-.224c.105-.023.267 0 .29.096zM39.39 19.835c.035.12-.07.177-.15.247a.261.261 0 0 1-.224-.035c0-.058-.081-.104-.058-.188a.252.252 0 0 1 .27-.143 1.927 1.927 0 0 1 .163.12zM40.162 19.789c.07.104 0 .189-.046.27a.157.157 0 0 1-.212.07c-.07-.07-.162-.105-.174-.212-.012-.108.105-.163.174-.2.12-.047.166.072.258.072zM6.497 20.12c0 .081-.055.127-.078.194-.024.067-.116.07-.186.047a.328.328 0 0 1-.171-.186.29.29 0 0 1 .206-.23.29.29 0 0 1 .229.175Z" style="fill:#fff;stroke-width:.290194;fill-opacity:1" transform="translate(-2.923 -4.365)"/><path class="cls-1" d="M31.16 20.128a.351.351 0 0 1 0 .154c-.069.096-.165.177-.29.12-.07-.073-.15-.143-.116-.247a.23.23 0 0 1 .386-.027zM8.351 20.294c-.023.081-.058.16-.16.171-.1.012-.139-.081-.197-.125 0-.104 0-.209.093-.267a.209.209 0 0 1 .264.22zM7.246 20.314a.244.244 0 0 1-.113.256.27.27 0 0 1-.311-.163.32.32 0 0 1 .206-.264c.105 0 .163.116.218.171zM31.933 20.305a.235.235 0 0 1-.131.29c-.14.047-.255-.072-.316-.165.06-.096.072-.223.211-.246a.29.29 0 0 1 .236.127zM7.788 20.34c.035.079-.034.113-.058.172-.058 0-.093.07-.162.046-.07-.023-.137-.081-.148-.163-.012-.08.07-.17.148-.22a.22.22 0 0 1 .22.165zM38.746 20.448a.351.351 0 0 1-.197.188c-.093.024-.15-.058-.223-.095-.073-.038-.035-.151 0-.212a.232.232 0 0 1 .429.119ZM39.637 20.494a.29.29 0 0 1-.29.2c-.104-.046-.223-.127-.14-.27.047-.046.07-.095.14-.107a.226.226 0 0 1 .29.177zM34.083 20.57c.058.15-.081.2-.174.27a.496.496 0 0 1-.224-.096.27.27 0 0 1 .163-.29.29.29 0 0 1 .235.13zM30.868 20.718c.058.026.034.107.023.142-.07.046-.163.165-.27.095a.203.203 0 0 1-.116-.226.22.22 0 0 1 .363 0zM31.52 20.802a.157.157 0 0 1-.092.188c-.082.082-.175 0-.256-.034a.192.192 0 0 1 0-.178.25.25 0 0 1 .151-.095c.081.023.174.023.21.119zM11.692 20.813c.07.07 0 .154-.024.224a.226.226 0 0 1-.29.058c-.116-.047-.104-.2-.081-.29.07-.024.07-.108.162-.108a.389.389 0 0 1 .235.12zM35.334 20.86c.023.119-.093.165-.175.188-.142.047-.211-.058-.27-.153 0-.07.07-.117.093-.177.166-.07.27.049.352.142zM34.704 20.86c.043.119-.084.177-.13.235a.238.238 0 0 1-.259-.047c-.058-.034-.058-.107-.058-.177.07-.058.107-.127.189-.153a.313.313 0 0 1 .258.142zM39.977 21.002c.023.165-.189.081-.27.128-.49.29-1.123.072-1.59-.105.034-.154.209-.096.304-.154.502-.319 1.016.07 1.518.096zM7.919 20.837l-.046.08a1.857 1.857 0 0 1-1.483.268l-.047-.07a2.084 2.084 0 0 1 1.544-.313zM36.526 20.941a.29.29 0 0 1-.116.226.232.232 0 0 1-.304-.13c-.035-.096.058-.189.15-.224a.209.209 0 0 1 .27.128zM10.066 20.99c-.046.093-.023.189-.139.235a.252.252 0 0 1-.29-.153c-.035-.131.058-.166.116-.224.142-.07.247.035.316.142zM9.236 21.048c.035.082-.034.131-.058.189a.218.218 0 0 1-.235.035.27.27 0 0 1-.127-.29A.618.618 0 0 1 9 20.85c.108.023.212.07.235.189zM37.345 21.318a.25.25 0 0 1-.186.212.267.267 0 0 1-.224-.116.186.186 0 0 1 .047-.223c.023-.038.104-.038.154-.061a.255.255 0 0 1 .209.188zM8.305 21.15c.035.093-.046.128-.058.197a1.686 1.686 0 0 1-.253.5c-.217.266-.528.266-.838.348l-.047-.093a3.033 3.033 0 0 1 1.161-.975ZM36.761 21.44c.024.142-.095.166-.177.224a.261.261 0 0 1-.232-.143c-.038-.127.081-.174.151-.235a.24.24 0 0 1 .258.154zM9.715 21.44c0 .023 0 .047.035.058 0 .13-.104.166-.174.224a.32.32 0 0 1-.258-.116.2.2 0 0 1 .116-.273c.107 0 .246 0 .29.107zM38.912 21.803c.116 0 .139-.154.27-.177a.29.29 0 0 1 .29.13c.046.14-.058.212-.151.27-.093.058-.258-.072-.247.082a.363.363 0 0 1 .166.235c-.024.049-.108.037-.143 0a1.471 1.471 0 0 1-.841-.729c-.047-.107-.267-.188-.14-.29a1.085 1.085 0 0 1 .807.461zM40.035 21.44a.18.18 0 0 1 0 .224c-.061.119-.235.07-.34.058-.058-.058-.116-.116-.093-.212a.369.369 0 0 1 .174-.151.322.322 0 0 1 .27.081zM35.778 22.073a1.741 1.741 0 0 1 .258.47c-.023.038-.081.026-.105.026-.397-.226-.914-.473-1.065-.943-.034-.047-.13-.108-.116-.189.29-.058.58.166.807.331.081.116.174.174.22.305zM8.984 21.591c.046.104-.046.186-.102.232a.27.27 0 0 1-.267-.093c-.078-.127.07-.232.163-.29.093-.058.148.081.206.14zM37.252 21.896c0 .072-.081.119-.116.165-.096 0-.189.047-.27-.035-.023-.058-.081-.153 0-.212.128-.165.316-.034.397.082zM40.162 22.061a.273.273 0 0 1-.162.29.29.29 0 0 1-.29-.104c-.058-.07 0-.142 0-.224a.29.29 0 0 1 .29-.084.725.725 0 0 1 .14.12zM32.072 23.686c0 .142-.258.108-.363.212a2.501 2.501 0 0 1-1.227.177v-.07a1.741 1.741 0 0 1 1.59-.319zM15.014 24.191a.23.23 0 0 1-.177.2.232.232 0 0 1-.2-.116c-.046-.142.073-.2.154-.258a.29.29 0 0 1 .223.174zM31.872 24.322a.33.33 0 0 1-.175.27c-.104.026-.177-.035-.258-.082-.081-.046-.023-.13-.035-.188a.252.252 0 0 1 .468 0zM34.199 24.368a1.9 1.9 0 0 1-1.004.412h-.633l-.058-.046c.386-.47 1.088-.47 1.695-.424v.07zM11.808 24.653a.218.218 0 0 1-.151.223.215.215 0 0 1-.247-.107.212.212 0 0 1 .096-.27c.127-.081.255.058.29.154zM12.394 24.769c.035.06-.023.095-.047.153a.197.197 0 0 1-.223 0 .15.15 0 0 1-.07-.2c.035-.07.105-.058.14-.104a.325.325 0 0 1 .2.15zM7.858 25.857c-.116.14-.29-.035-.427-.105-.403-.232-.391-.684-.795-.949.047-.139.151 0 .23 0a1.376 1.376 0 0 0 .243.125c.392.22.482.58.749.94z" style="fill:#fff;stroke-width:.290194;fill-opacity:1" transform="translate(-2.923 -4.365)"/><path class="cls-1" d="M42 21.39a.934.934 0 0 0-.871-.484.804.804 0 0 0-.653.485.598.598 0 0 0 .22.647.183.183 0 0 0 .235-.058c.058-.154-.104-.154-.127-.273a.386.386 0 0 1 .127-.412c.117-.116.317-.058.456-.058a.815.815 0 0 1 .351.342.958.958 0 0 1 0 .624 1.053 1.053 0 0 1-.725.58c-.97.14-11.608.094-11.608.094-1.25.119-2.676-.235-3.752.423-.49.235-.737.778-.87 1.26a8.64 8.64 0 0 0-.932.943l-.035-.035c.058-.29.188-.531.246-.813.175-.235.175-.554.305-.812.444-.72.87-1.451 1.556-1.956.29-.389.806-.316 1.25-.316a3.11 3.11 0 0 0 1.625.235.107.107 0 0 0 .035-.084c-.165-.151-.432-.212-.62-.363-.468-.226-.912.07-1.402.035-.024-.026-.047-.035-.035-.073a6.965 6.965 0 0 1 1.45-.778 10.026 10.026 0 0 1 1.275-.505c.177 0 .34-.153.505-.046l.618-.165c.023 0 .046.046.096.034.525-.177 1.192 0 1.787-.023l.081.07.563.142c.21.023.29.27.526.29.116-.162-.128-.235-.189-.34a1.28 1.28 0 0 1 .783.117l-.116.13c-.07.131.035.224.14.27.104.047.142-.035.2-.058.15-.107 0-.212.035-.29a11.027 11.027 0 0 1 2.487.69 2.031 2.031 0 0 0 .679.224 3.067 3.067 0 0 0-.888-.47c-.2-.119-.482-.13-.633-.29.035-.058.116-.035.151-.081a1.741 1.741 0 0 0 1.019-.66c.023-.072.15-.048.139-.141-.105-.12-.29.035-.42.023-.491.093-.7.67-1.194.778-.58-.143-1.204-.29-1.799-.436a3.654 3.654 0 0 1-.87-.188l-.656-.061h-1.193c0-.023-.046-.035-.035-.07.421-.104.784-.354 1.205-.458l3.134-1.437a7.757 7.757 0 0 0 .888-.966.223.223 0 0 0-.128-.224.197.197 0 0 0-.235.047c-.14.107 0 .235 0 .365a1.933 1.933 0 0 1-.537.459c-.046 0-3.227 1.45-3.227 1.45a7.922 7.922 0 0 1-1.428.532l-.679.104a.444.444 0 0 1-.29.273 2.87 2.87 0 0 1-.54.154c-1.517.58-3.096 1.213-4.3 2.414a1.355 1.355 0 0 0 .116-.496.97.97 0 0 0-.128-.516c-.029-.067-.113-.256-.087-.325l-.171.113a1.642 1.642 0 0 0-.093.998c.035.212.209.461.046.65-.56.682-.87 1.506-1.25 2.284-.143-.023-.212-.154-.27-.29a3.906 3.906 0 0 0 .827-1.727c.081-.058.023-.212.104-.29-.023-.189.108-.377.015-.531.072-.258-.343-.493-.079-.659l-.22.105c-.502.661.261 1.648-.31 2.286v.047a2.031 2.031 0 0 1-.468.58c-.29-.119-.386-.438-.551-.673-.256-.247-.256-.752-.105-1.094.105-.343-.07-.636-.104-.943l-.116-.07a1.364 1.364 0 0 0-.166 1.378c.116.212.131.505.305.682a3.79 3.79 0 0 0 .502.871c.047.119-.07.142-.128.2-.127-.081-.104-.27-.223-.35a8.584 8.584 0 0 0-1.494-2.157c-.024-.107-.131-.2-.073-.32a.87.87 0 0 0 .154-.893c-.023-.058-.093-.13-.081-.189l-.178-.142c.024.412-.243.778-.127 1.213v.023a22.345 22.345 0 0 0-3.892-2.35l-.11.29a8.067 8.067 0 0 1 1.25.636 7.835 7.835 0 0 1 1.162.626c1.59.87 2.643 2.342 3.354 3.967 0 .13.13.27.047.4a6.158 6.158 0 0 0-.88-.902 1.715 1.715 0 0 0-.888-1.309c-.174-.258-.548-.29-.841-.365l-4.257-.023c-3.46-.047-6.617.107-10.056.049-.478-.05-1.062-.212-1.204-.72a.786.786 0 0 1 0-.647.72.72 0 0 1 .598-.32.624.624 0 0 1 .397.332c0 .154-.13.29-.188.423 0 .047.058.143.142.105a.546.546 0 0 0 .29-.374c0-.085.047-.2-.035-.262a.78.78 0 0 0-.548-.481.975.975 0 0 0-.795.27c-.29.235-.27.661-.189.99a1.579 1.579 0 0 0 1.265.942l11.376.047c1.111.058 2.362-.13 3.482.095a1.34 1.34 0 0 1 .96.903c0 .023-.046 0-.08 0a5.067 5.067 0 0 0-3.323-.67 4.03 4.03 0 0 0-1.309.27.659.659 0 0 1-.58-.19c-.421-.376-1.161-.353-1.695-.211v.081c.58-.046.911.45 1.425.508.116.023.212-.107.316 0a10.42 10.42 0 0 1-1.625.728c-.177-.034-.27-.2-.41-.29-.223-.246-.632-.142-.933-.165-.108.023-.2-.047-.27 0a.987.987 0 0 0 .502.389c.29.13.632 0 .9.165a1.245 1.245 0 0 1-.244.166c-.552.211-1.007.705-1.614.67a2.095 2.095 0 0 1-1.741-.58 1.16 1.16 0 0 0-1.181-.682c-.035.023-.081.023-.07.08.258.155.456.46.714.636.165.2.479 0 .633.224a2.031 2.031 0 0 0 .76.33 3.108 3.108 0 0 0 .606.166l-.08.046c-1.066.354-2.293.39-3.483.343-.351 0-.69-.12-1.039-.108a.633.633 0 0 0 .29.166.708.708 0 0 1-.313.096 2.116 2.116 0 0 0-.447.116 1.184 1.184 0 0 0-.502.119 2.336 2.336 0 0 1-.65.554c0 .05-.015.119.046.119.22-.093.502-.023.723-.119.386-.035.61-.459.914-.636.325-.258.795-.2 1.193-.139.232.058-.024.151.046.29.093.085.174.177.29.143a.209.209 0 0 1 .081-.058.273.273 0 0 0 0-.29c.163-.105.386 0 .56-.059.445 0 .889-.107 1.324-.119.07 0 .15-.08.22 0-.034.096-.15.108-.104.235.046.128.14.154.232.177.12-.046.224-.127.177-.29-.023-.084-.116-.096-.177-.13.247-.12.528-.154.772-.27a2.168 2.168 0 0 0 .49-.166c.154 0 .29-.153.424-.093a2.632 2.632 0 0 1-.247.563c-.185.624-.327 1.451 0 2.05.035.014.047 0 .07-.024-.247-.624-.104-1.34.105-1.93.165-1.001 1.192-1.297 1.93-1.671l.034.046c-.197.517-.49 1.013-.444 1.637.023.104-.046.212 0 .29a1.201 1.201 0 0 0 .433-.543c.08-.528-.221-1.187.316-1.575.958-.378 1.86-.871 2.969-.871.037.038.119-.023.13.05-.235.258-.58.504-.679.823-.374.517-.363 1.402-.197 2.032.104.366-.212.58-.363.847-.073.099-.093.273-.162.386l.232.026a1.257 1.257 0 0 0 .397-.777.32.32 0 0 0 .22.235c.085-.128-.069-.224-.08-.352.188-.107.27.128.42.175a2.902 2.902 0 0 0 .714.165l.081-.081c-.255-.4-.771-.47-1.215-.496a2.362 2.362 0 0 1-.21-1.341 2.072 2.072 0 0 1 .233-.731 1.776 1.776 0 0 1 .354-.473 1.622 1.622 0 0 1 .737-.4h.035a.052.052 0 0 0 0 .034c-.317.247-.351.58-.537.897a.984.984 0 0 0-.108 1.024c.073.15.035.386.2.493a2.612 2.612 0 0 0 .253-.72c-.035-.385-.267-.751-.046-1.128a.978.978 0 0 1 .627-.52c.644-.058 1.204.273 1.764.52.119.081.316.154.34.319a.958.958 0 0 1-1.498.775.81.81 0 0 1-.186-.717.482.482 0 0 1 .514-.189c.119.058.223.177.374.105a.148.148 0 0 0 .047-.189c-.128-.07-.174-.246-.351-.27a.755.755 0 0 0-.642.13.827.827 0 0 0-.27.825 1.01 1.01 0 0 0 .726.755 1.364 1.364 0 0 0 1.45-.497 1.593 1.593 0 0 0 .256-.505 3.02 3.02 0 0 1 1.205 1.553 2.525 2.525 0 0 1 0 .58l.409.035a.395.395 0 0 1 .035-.29 3.57 3.57 0 0 1 1.204-1.933c.2-.116.154.154.2.238a1.573 1.573 0 0 0 1.016.894 1.286 1.286 0 0 0 1.265-.412c.15-.29.337-.694.081-.99a.81.81 0 0 0-.644-.29.79.79 0 0 0-.621.438c0 .093 0 .2.07.247.046 0 .139 0 .174-.058.023-.177.177-.261.316-.354a.369.369 0 0 1 .374.07.627.627 0 0 1 .163.461.702.702 0 0 1-.398.563 1.187 1.187 0 0 1-1.123-.104 2.612 2.612 0 0 1-.325-.52c-.023-.189-.095-.354 0-.54a3.912 3.912 0 0 1 1.672-.58 1.184 1.184 0 0 1 .618.389c.54.551-.116 1.34.258 1.953.14-.023.14-.212.198-.328.177-.424-.047-.87-.151-1.297a2.374 2.374 0 0 0-.444-.714.29.29 0 0 1 .139-.023 2.774 2.774 0 0 1 .714.603 3.143 3.143 0 0 1 .455 1.93c-.092.354-.467.52-.76.647a1.12 1.12 0 0 0-.313.377c.139.085.336 0 .479-.058.22-.08.35-.365.502-.493.023 0 0 .046.023.07 0 .13-.058.29.058.342a4.283 4.283 0 0 0 .107-.6 1.16 1.16 0 0 1 .22.58c.105.212.29.493.56.528.073-.104 0-.212-.034-.305-.035-.29-.29-.45-.444-.661-.41-.563-.22-1.451-.537-2.084a2.438 2.438 0 0 0-.632-.87l.046-.047a6.837 6.837 0 0 1 1.579.29c.644.317 1.578.247 1.883 1.083a3.076 3.076 0 0 0 .667 1.274l.035-.027a.479.479 0 0 0 0-.435c-.07-.58-.58-.728-.853-1.224l.035-.047a8.262 8.262 0 0 1 .853.27 2.519 2.519 0 0 1 1.706 2.133 4.597 4.597 0 0 1-.432 2.014c-.035.093-.197.2-.093.29.128-.093.151-.247.22-.354a3.265 3.265 0 0 0 .387-2.365c0-.154-.186-.273-.105-.424a.374.374 0 0 0 .2.105c.07-.047.175-.047.22-.128.047-.081.059-.154 0-.215a.325.325 0 0 0-.339-.08.563.563 0 0 0-.139.257 2.458 2.458 0 0 0-.42-.612l.023-.035c.525.177 1.004.436 1.543.58a.769.769 0 0 0 .41.131 11.23 11.23 0 0 0 1.45.363c.349-.035.642.13.993.05v-.024c-.128-.165-.41 0-.56-.13a8.688 8.688 0 0 1-2.304-.58c0-.036.058-.024.093-.024a.29.29 0 0 0 .185-.29.31.31 0 0 0-.267-.13.328.328 0 0 0-.177.2.29.29 0 0 0 .177.223c-.023.023-.07 0-.104 0-.363-.166-.714-.32-1.065-.482-.128-.026-.235-.13-.363-.154a12.37 12.37 0 0 0-.807-.365 18.32 18.32 0 0 0-2.373-.871l-.502-.142c-.29-.081-.58-.154-.871-.235-.995-.247-2.322-.27-3.192.27-.142-.047-.224.177-.29.034.246-.647.957-.87 1.602-.87 4.69-.047 9.086-.081 13.703-.154a1.477 1.477 0 0 0 1.343-.67 1.181 1.181 0 0 0 .084-1.083zm-18.593 4.354a1.065 1.065 0 0 0-.128.412l-.046.023c.034-.177-.14-.29-.093-.47-.096-.142-.096-.32-.177-.47-.082-.151.093-.273.177-.4.162.069.22.223.336.362.073.2-.081.354-.07.543z" style="fill:#fff;stroke-width:.290194;fill-opacity:1" transform="translate(-2.923 -4.365)"/><path class="cls-1" d="M36.094 24.992c0 .038.07.05.046.107a2.438 2.438 0 0 1-1.567.494c-.046 0-.093.05-.15.035-.059-.015-.047-.058-.024-.082a1.79 1.79 0 0 1 1.695-.554zM34.21 25.18c.047.166-.057.262-.185.32a.334.334 0 0 1-.258-.189c-.035-.093.046-.142.08-.2a.22.22 0 0 1 .364.07zM11.982 25.213a.247.247 0 0 1-.058.25.24.24 0 0 1-.212.057c-.081 0-.128-.107-.151-.177a.255.255 0 0 1 .15-.223c.094 0 .201 0 .27.093zM9.892 25.97v.084a.911.911 0 0 1-.76-.177 1.573 1.573 0 0 0-.621-.58c0-.035-.07-.084 0-.108.58 0 .937.473 1.381.79zM37.87 25.192c-.267.4-.502.897-.98 1.074-.082 0-.152.116-.224.035a2.17 2.17 0 0 1 1.041-1.12.386.386 0 0 1 .163 0zM12.664 25.335c0 .13-.085.153-.166.223-.093 0-.139-.058-.197-.128-.05-.119.058-.165.116-.226a.25.25 0 0 1 .247.13zM39.344 25.404c-.104.154-.058.377-.162.543-.235.27-.436.58-.807.635-.058-.116.081-.235.14-.342a1.686 1.686 0 0 1 .771-.905zM6.233 25.416a.226.226 0 0 1 0 .255.27.27 0 0 1-.264.047.215.215 0 0 1-.093-.29c.07-.105.276-.163.357-.024zM6.935 25.625c.023.093.047.255-.09.29-.162.07-.255-.047-.348-.14a.264.264 0 0 1 .14-.232.316.316 0 0 1 .29.093zM8.824 25.776c0 .08 0 .197-.08.22-.082.023-.163.035-.219.023-.023-.07-.15-.127-.08-.209a.459.459 0 0 1 .159-.127c.07.035.174 0 .22.093zM40.467 25.958c-.035.085-.081.19-.177.19-.096 0-.209-.024-.267-.132-.058-.107.058-.2.151-.235.093-.034.27.05.29.177zM38.326 26.016c.014.096-.093.166-.14.2a.29.29 0 0 1-.363-.173.255.255 0 0 1 .503-.027zM39.776 25.993a.24.24 0 0 1-.104.2.273.273 0 0 1-.29-.046c-.105-.093-.023-.177.046-.247.07-.07.29-.046.34.093zM37.742 26.324a.261.261 0 0 1-.162.308c-.096.023-.154-.026-.224-.084-.07-.059-.104-.19 0-.247a.23.23 0 0 1 .398.023zM12.252 26.455c.049.127-.093.15-.128.223-.047.023-.14.035-.174 0-.035-.035-.128-.142-.093-.25.058-.046.081-.092.15-.116.129-.034.175.082.245.154zM40.255 26.536c.024.081-.046.119-.058.177a.32.32 0 0 1-.27.046c-.104-.058-.104-.153-.104-.258.07-.046.081-.107.165-.13a.264.264 0 0 1 .267.165zM39.533 26.57c.046.143-.084.213-.177.247-.047 0-.116-.023-.128.05a2.989 2.989 0 0 1 .723.624v.093a1.57 1.57 0 0 1-1.161-.447c-.084-.058-.224-.058-.316-.143.15-.15.432-.092.64-.104.155-.165-.173-.29.027-.424.07 0 .116-.084.209-.06a.441.441 0 0 1 .177.165zM34.747 26.582c.027.061-.043.131-.058.189a.223.223 0 0 1-.255.046c-.058-.08-.154-.15-.119-.27a.24.24 0 0 1 .432.035zM8.537 26.878c-.035.105-.081.174-.197.186a.226.226 0 0 1-.206-.14c0-.08.046-.127.058-.185.125-.104.354-.035.345.14zM9.553 26.844c0 .162-.177.258-.235.423a1.187 1.187 0 0 1-.935.775c-.046-.104.151-.235.198-.34.188-.4.563-.612.902-.87zM34.469 27.006c0 .13-.105.223-.2.273-.096.05-.186-.05-.244-.096-.093-.093-.035-.189 0-.29.14-.142.34-.023.432.104zM35.197 27.09a.29.29 0 0 1-.212.258c-.023-.034-.08 0-.116-.023a.264.264 0 0 1-.154-.212c.061-.058.085-.153.166-.165.081-.012.29 0 .316.142zM11.364 27.079a.255.255 0 0 1-.175.246.23.23 0 0 1-.223-.142c-.023-.104.084-.177.142-.235.14-.046.174.058.256.13zM12.17 27.125a.29.29 0 0 1-.22.2c-.081-.023-.177-.046-.212-.142-.035-.096.084-.177.165-.235a.244.244 0 0 1 .267.177zM37.707 27.95c.058.046.163.107.14.188-.186.081-.34-.13-.514-.166a2.382 2.382 0 0 1-.606-.943c.104-.104.22.026.313.061a2.272 2.272 0 0 1 .667.87zM38.14 27.125a.29.29 0 0 1-.023.258c-.07.12-.224.096-.328.073-.058-.073-.163-.166-.093-.273.07-.107.14-.116.22-.154.082-.037.143.061.224.096zM13.247 27.43c0 .095.035.238-.081.29a.23.23 0 0 1-.29-.142c-.059-.14.07-.166.142-.235.093-.024.15.023.22.08zM35.16 28.196a1.741 1.741 0 0 1 .29.836c-.035.084.058.165 0 .223h-.047c-.525-.374-.641-.905-.841-1.45a.096.096 0 0 1-.047-.117c.116-.107.198.104.317.142l.327.351zM14.768 27.795v.024c-.468.33-1.123.53-1.66.211a.087.087 0 0 1 .058-.104 2.403 2.403 0 0 1 1.027-.223l.563.092zM12.1 27.856c-.408.259-.76.729-1.25.839-.093.035-.151.165-.27.093.212-.636.903-.978 1.52-1.036v.096zM34.469 28.384c.035.096 0 .224-.093.247a.16.16 0 0 1-.223 0c-.105-.046-.105-.15-.105-.235 0-.084.116-.093.174-.128.105.024.189.024.247.116zM33.497 28.443a.65.65 0 0 1-.421.307c-.398.142-.758-.046-1.109-.142 0-.093.128-.058.186-.116a2.542 2.542 0 0 1 1.193-.061.122.122 0 0 1 .15 0zM12.1 28.785c-.034.046-.046.154-.139.189a.25.25 0 0 1-.235-.047c-.023-.072-.104-.13-.046-.212a.323.323 0 0 1 .189-.13.25.25 0 0 1 .232.2zM12.791 28.892c-.034.07-.07.177-.162.224a.252.252 0 0 1-.235-.084.29.29 0 0 1-.035-.235c.023-.058.104-.07.162-.105.117 0 .224.105.27.2zM34.245 29.008a.308.308 0 0 1-.08.224.194.194 0 0 1-.256.05c-.084 0-.108-.108-.142-.166-.035-.058.046-.154.08-.235a.252.252 0 0 1 .398.127zM34.762 28.985c0 .058.046.12.023.166-.072.058-.119.211-.258.153-.07.024-.105-.072-.14-.095-.046-.116 0-.29.14-.317.104-.037.177.058.235.093zM12.37 29.328a.31.31 0 0 1-.118.316c-.128.026-.29.026-.337-.128a.316.316 0 0 1 .14-.342.29.29 0 0 1 .316.154zM13.035 29.275c-.023.328-.093.729-.418.917-.188.035-.377.212-.563.096v-.06c.247-.352.69-.625.981-.953zM32.411 29.566c.047.07-.034.13-.07.188-.034.058-.2.047-.29 0-.09-.046-.092-.154-.058-.235a.232.232 0 0 1 .151-.13c.105 0 .2.084.259.165zM14.205 30.094c.165.27.072.635.165.928-.2.024-.29-.2-.41-.316-.257-.354-.223-.824-.339-1.236a.06.06 0 0 1 .082-.026 2.902 2.902 0 0 1 .444.496c-.024.081.07.081.058.154zM32.995 29.644c0 .096-.105.119-.163.177a.441.441 0 0 1-.223-.105c-.035-.119.058-.153.119-.211a.194.194 0 0 1 .267.139zM34.388 30.694c0 .035 0 .105-.073.082h-.046c-.337-.308-.677-.647-.63-1.12h.07c.316.272.667.58.679 1.05zM33.508 30.317a.267.267 0 0 1-.104.224c-.128.034-.328.023-.351-.154 0-.12.119-.177.177-.235a.238.238 0 0 1 .29.165zM32.736 30.564c-.162.435-.606.659-.91.99-.059-.035-.036-.131-.024-.178a1.634 1.634 0 0 1 .9-1.059c.188.023 0 .151.034.247zM33.616 30.918c0 .104-.108.15-.166.212a.337.337 0 0 1-.255-.13c0-.12.081-.155.15-.213a.244.244 0 0 1 .27.13zM24.916 9.542a.29.29 0 0 1 0 .58h-3.468a.29.29 0 0 1 0-.58zm-2.452.505c.339 0 .017-.412-.166-.412h-.337c-.34 0-.02.412.163.412zm1.419 0c.34 0 .02-.412-.163-.412h-.34c-.339 0-.017.412.166.412zm1.047-.412h-.128c-.34 0-.052.412.131.412.226 0 .24-.412 0-.412zM24.61 13.515l.663.255.653-.255-.259.975.517-.107-.177.58.177.58-.459-.121.2 1.05-.652-.255-.662.252.27-1.05-.528.148.142-.58-.142-.581.505.084zm.979 1.759c.148 0 .162-.204.162-.38 0-.404-.319 0-.481-.38-.12.318-.447.022-.447.365 0 .238 0 .395.235.395zm-.65-.363c0 .154.206.052.357.052.15 0 .36.102.36-.052 0-.215-.206-.14-.36-.14s-.357-.075-.357.14z" style="fill:#fff;stroke-width:.290194;fill-opacity:1" transform="translate(-2.923 -4.365)"/><path class="cls-1" style="fill:#fff;fill-opacity:1" transform="matrix(.2902 0 0 .2902 -4 -4.109)" d="m83.54 49.1.23.42.4-.04-.19.34.3.31-.38.08v.42l-.36-.27-.36.27v-.42l-.39-.08.3-.31-.18-.34.39.04zM81.77 51.39l.23.41.39-.04-.18.34.3.32-.38.07v.42l-.36-.26-.36.26v-.42l-.39-.07.3-.32-.18-.34.39.04zM84.77 51.1l.23.41.4-.04-.18.34.3.32-.39.07v.43l-.36-.28-.36.28v-.43l-.38-.07.3-.32-.19-.34.39.04zM84.97 53.47l.13.23.22-.02-.1.19.17.18-.22.04v.24l-.2-.15-.2.15v-.24l-.22-.04.17-.18-.11-.19.22.02zM82.59 53.66l.4.7.68-.06-.32.59.51.53-.65.13v.73l-.62-.46-.62.46v-.73l-.65-.13.51-.53-.32-.59.67.07zM86.17 30.28l-2.78-2.53-2.78 2.53.23-3.77-3.7-.62 3.07-2.17-1.83-3.29 3.59 1.06L83.39 18l1.42 3.49 3.6-1.06-1.83 3.29 3.06 2.17-3.69.62z"/><path class="cls-1" d="M19.353 28.19c-.125.046-.174.081-.143.209l.146.621a.54.54 0 0 1-.041.406.757.757 0 0 1-.424.253.87.87 0 0 1-.499 0 .366.366 0 0 1-.244-.314l-.153-.67c-.038-.163-.1-.15-.233-.134v-.046l.784-.189v.05c-.151.04-.224.06-.183.232l.154.65c.026.11.09.38.424.29a.377.377 0 0 0 .313-.522l-.14-.58c-.028-.12-.072-.18-.272-.14v-.05l.51-.121v.05zM20.513 28.32a.502.502 0 0 0-.536-.26c-.12.028-.236.116-.206.24.029.125.075.14.29.177l.371.067a.42.42 0 0 1 .337.29c.038.174-.061.441-.488.537a2 2 0 0 1-.412.023.07.07 0 0 0-.055.082l-.07.017-.104-.485.067-.014a.493.493 0 0 0 .58.31c.29-.06.25-.258.244-.29-.03-.13-.148-.154-.314-.18l-.168-.029c-.435-.072-.473-.238-.49-.328-.018-.09 0-.4.43-.502a2.086 2.086 0 0 1 .376 0c.053 0 .058-.043.061-.084h.07l.093.424h-.064zM22.057 29.09l-.85.084v-.052c.171-.027.23-.038.212-.204l-.099-1.05c-.165.023-.409.055-.426.38h-.07l-.03-.4 1.426-.137.037.404h-.066c-.079-.314-.325-.29-.49-.29l.1 1.05c0 .168.073.168.25.16v.049zM24.04 29.09h-.491l-.479-.636h-.06v.395c0 .16.048.165.205.188v.05l-.807-.018v-.049c.163 0 .212-.017.215-.18l.018-.87c0-.172-.073-.178-.207-.19v-.048h.77c.165 0 .67.029.664.365 0 .247-.252.29-.38.337l.467.58a.113.113 0 0 0 .096.04v.05zm-1.03-.711c.312 0 .437-.038.44-.29a.252.252 0 0 0-.29-.29c-.13 0-.136.02-.15.083v.508z" style="fill:#fff;stroke-width:.290194;fill-opacity:1" transform="translate(-2.923 -4.365)"/><path class="cls-1" d="m25.603 29.293-.766-.096v-.052c.148 0 .192 0 .2-.052a1.042 1.042 0 0 0-.078-.29l-.53-.067a1.32 1.32 0 0 0-.137.243c0 .076.104.096.183.11v.05l-.48-.061v-.05c.128 0 .172-.063.262-.202l.664-1.002h.067l.398 1.109c.081.226.11.29.223.31v.05zm-.661-.56-.192-.514-.29.456.464.058zM26.993 29.566l-1.358-.25v-.05c.134 0 .206.018.23-.1l.17-.956c.024-.127-.072-.15-.176-.177v-.046l.821.148v.05c-.165-.024-.238-.036-.27.139l-.168.928c0 .096.032.12.188.148a.58.58 0 0 0 .665-.276h.07z" style="fill:#fff;stroke-width:.290194;fill-opacity:1" transform="translate(-2.923 -4.365)"/><path class="cls-1" d="m27.893 29.777-.818-.174v-.049c.127.017.22.029.243-.093l.198-.946c.026-.13-.084-.157-.189-.186v-.049l.819.171v.05c-.11-.018-.221-.041-.25.092l-.194.95c-.027.124.063.15.191.185zM29.55 29.99l-.769-.082v-.05c.148 0 .192 0 .197-.057a1.039 1.039 0 0 0-.08-.29l-.535-.056a1.126 1.126 0 0 0-.13.247c0 .075.104.093.185.104v.05l-.481-.05v-.049c.127 0 .168-.067.255-.209l.638-1.036h.067l.42 1.103c.088.223.117.29.233.305v.049zm-.676-.546-.192-.508-.27.458zM23.453 13.84c0-.482-.27-.032-.418-.441-.11.345-.435.055-.435.426a.29.29 0 0 0 .107.27v.143a.064.064 0 0 0 .064.066h.51a.067.067 0 0 0 .068-.066v-.154a.313.313 0 0 0 .104-.244zm-.418.09c-.14 0-.328.099-.328-.07 0-.235.16-.183.29-.183.131 0 .36-.052.36.183 0 .169-.188.07-.33.07zM27.635 19.74a.194.194 0 1 0-.218-.195.209.209 0 0 0 .218.195zM26.599 12.618a1.24 1.24 0 0 0-.102.206.104.104 0 1 0 .21 0l-.108-.206zM19.527 12.618a1.225 1.225 0 0 0-.105.206.104.104 0 1 0 .21 0l-.105-.206zM21.303 12.618a1.24 1.24 0 0 0-.102.206.104.104 0 1 0 .21 0l-.108-.206zM23.07 12.618a1.225 1.225 0 0 0-.104.206.104.104 0 1 0 .208 0l-.104-.206zM24.834 12.618a1.225 1.225 0 0 0-.104.206.107.107 0 1 0 .212 0l-.108-.206zM19.541 15.056a1.24 1.24 0 0 1 .102.206.104.104 0 1 1-.21 0zM19.541 17.398a1.24 1.24 0 0 1 .102.206.104.104 0 1 1-.21 0zM19.817 19.26a1.225 1.225 0 0 1 .104.207.104.104 0 1 1-.209 0l.105-.206zM21.306 20.253a1.24 1.24 0 0 1 .101.206.104.104 0 1 1-.209 0l.108-.206zM26.689 15.056a1.24 1.24 0 0 0-.102.206.104.104 0 1 0 .21 0zM26.689 17.398a1.24 1.24 0 0 0-.102.206.104.104 0 1 0 .21 0zM26.407 19.26a1.225 1.225 0 0 0-.104.207.107.107 0 1 0 .212 0l-.108-.206zM24.924 20.253a1.24 1.24 0 0 0-.101.206.104.104 0 1 0 .209 0l-.108-.206zM23.122 21.304a1.24 1.24 0 0 0-.101.206.104.104 0 1 0 .209 0zM25.995 17.79c.023.031.079.043.148.02l.067-.192s-.076-.087-.125-.075c-.188.046-.389.067-.499.246a.366.366 0 0 0 .177.29c.067-.023.078.047.122.079a.078.078 0 0 1-.078.102c-.134-.134-.366.043-.465-.125.044-.166.134-.357 0-.514 0-.032.067-.067.032-.101-.055-.157-.22-.032-.322-.032a.427.427 0 0 0-.4.2.322.322 0 0 0 .09.168c.043 0 .066 0 .078.044l-.11.07a.247.247 0 0 1 .043.121c-.078.035-.157-.078-.188-.133-.032-.055 0-.247-.114-.27a.52.52 0 0 0-.095.032.337.337 0 0 0-.044.186.746.746 0 0 0 .044.2 1.886 1.886 0 0 1 .394.412c-.098.2-.098.479-.33.58-.067.044-.067.11-.067.177l.055.047c.145-.079.42-.102.4-.349a.911.911 0 0 1 .21-.29.235.235 0 0 1 .255.122.432.432 0 0 1-.29.337c-.024.023 0 .058 0 .09.046.078.168.043.234.035.19-.125.267-.349.433-.415.023.11-.224.145-.067.258.099-.023.232 0 .29-.125-.078-.189.267-.29.055-.447 0-.168.18-.235.169-.415-.067-.177-.29-.177-.334-.345a.235.235 0 0 1 .232 0zM17.884 19.824a.194.194 0 1 0 0-.386.194.194 0 1 0 0 .386zM6.395 26.405a.206.206 0 1 0-.217-.206.212.212 0 0 0 .212.206ZM13.723 28.138h-.015v-.018h-.023v-.005h.038v.017zm-.035-.023zM13.749 28.115a.017.017 0 0 1-.017 0h.014zM13.824 28.115v.034-.029l-.014.03v-.035h.014v.02-.018h.015v.02-.02z" style="fill:#fff;stroke-width:.290194;fill-opacity:1" transform="translate(-2.923 -4.365)"/><path class="cls-1" d="M13.824 28.138a.017.017 0 0 0 .02 0h.018c.018 0 .015 0 .015.017 0 .018 0 .02-.032.023zm.018 0zM13.865 28.115a.02.02 0 0 1-.02 0h.017-.014v-.02h.02zM27.185 12.337h-8.149v6.227c0 .636.27 1.19.642 1.361l3.134 1.991a.38.38 0 0 0 .29.128.371.371 0 0 0 .255-.099l3.192-2.031c.372-.172.642-.726.642-1.361v-6.228Zm-.23 6.311a1.39 1.39 0 0 1-.527 1.086l-3.07 1.953h-.018a.383.383 0 0 1-.238.084.395.395 0 0 1-.24-.087l-3.065-1.95a1.402 1.402 0 0 1-.531-1.086v-6.094h7.69z" style="fill:#fff;stroke-width:.290194;fill-opacity:1" transform="translate(-2.923 -4.365)"/><path class="cls-1" d="m24.208 21.414.101-.05a.667.667 0 0 0-.101.05zM18.076 29.925l-.766.09v-.049c.145-.029.188-.035.18-.102a1.056 1.056 0 0 0-.14-.252l-.534.064a1.021 1.021 0 0 0-.072.267c0 .075.122.07.203.064v.049l-.482.055v-.05c.128-.028.151-.1.206-.257l.4-1.161h.067l.648.984c.133.2.177.264.29.246v.05zm-.775-.386-.29-.455-.166.51.462-.055z" style="fill:#fff;stroke-width:.290194;fill-opacity:1" transform="translate(-2.923 -4.365)"/><path class="cls-1" d="M31.558 27.006a1.233 1.233 0 0 0-.795-.728 1.027 1.027 0 0 0-1.019.258c-.42.342-.127.908-.116 1.367 0 .093 0 .165-.08.212-1.698-.154-3.277-.58-4.96-.755-.386-.067-.775-.05-1.144-.128l-.47-.049a19.704 19.704 0 0 0-4.289.485c-.29.093-.62.116-.914.223-.209-.035-.386.116-.58.058l-.386.09a.29.29 0 0 1-.128 0c-.189-.482.374-.775.197-1.248a.87.87 0 0 0-.806-.481.978.978 0 0 0-.935.481c-.27.58.07 1.202.174 1.78-.023.188.189.4 0 .553a1.599 1.599 0 0 0-1.32-.272c-.142.072-.398-.024-.467.142.502.27 1.16.235 1.706.212.07-.023.116-.035.174 0 .05.307-.058.72.13.99a1.193 1.193 0 0 0 .9.388c1.077-.035 2.032-.354 3.015-.6.154 0 .27-.093.436-.093a8.416 8.416 0 0 1 1.66-.224 2.931 2.931 0 0 0-.494 1.06c-.139.316.247.365.363.54-.363.106-.618.353-.958.495-.748-.023-1.38.259-2.08.34 0 .154.244.107.267.261-.035.104-.14.116-.22.177 0 .07 0 .081.069.093.07-.081.223-.023.29-.105.232 0 .432-.072.653-.084a2.121 2.121 0 0 0 .598-.235c.244-.07.397-.235.644-.307.348 0 .665-.116.992-.14v.07c-.27.435-.548.885-.83 1.297a.13.13 0 0 0 .082.186.598.598 0 0 0 .455-.07c.247-.423.468-.824.668-1.26.081-.4.374-.612.667-.87.047-.026.116-.096.163-.026a5.366 5.366 0 0 0-.56.824.995.995 0 0 0 .174 1.028c.14.116.351.08.537.092.455-.235 1.041.143 1.393-.29.209-.038.243.212.362.328.198.058.41.258.607.12 0-.132-.151-.25-.22-.367-.143-.246-.317-.446-.445-.67a2.194 2.194 0 0 1-.188-.438 3.773 3.773 0 0 0 .632.25 3.656 3.656 0 0 1 .63.188 2.182 2.182 0 0 0 .58.447c.29.142.619.165.923.29.116 0 .29.108.375 0a.485.485 0 0 0-.175-.127c-.037-.154.21-.073.29-.19a.165.165 0 0 0-.133-.106c-.168-.09-.58-.122-.696-.183a2.768 2.768 0 0 1-.41-.128c-.702 0-1.088-.636-1.648-.87.128-.117.328-.212.41-.39a.659.659 0 0 0 .034-.623c-.104-.363-.58-.317-.841-.517l.034-.035a4.948 4.948 0 0 1 1.263.163c1.123.154 2.165.58 3.334.6.641 0 1.451.038 1.765-.58.058-.366.127-.731.185-1.097.142-.58.528-1.129.47-1.779zm-12.63 5.372-.162-.154c.082-.105.256-.047.386-.12a2.031 2.031 0 0 1 .993-.139c-.351.29-.807.317-1.216.413zm7.302-.2a5.061 5.061 0 0 0 1.245.29c-.035.16-.322 0-.29.235-.363-.143-.784-.212-1.053-.497.023 0 .046-.046.095-.034zm-10.972-4.995a.847.847 0 0 1 .29-.58.99.99 0 0 1 .923.037.459.459 0 0 1 .189.224.522.522 0 0 1-.177.528h-.116a1.291 1.291 0 0 1 .07-.528c0-.142-.129-.154-.224-.212a.676.676 0 0 0-.526.116.537.537 0 0 0-.15.52c.08.127 0 .29.058.446l-.035.047c-.142-.154-.328-.316-.29-.58zm.548.351c.177.13.421.073.633.108a.447.447 0 0 1-.058.4c-.2-.05-.456-.023-.563-.212.023-.084-.035-.2 0-.29zm-.034-.394c.034-.096 0-.236.13-.259.081-.023.21-.023.22.07a2.35 2.35 0 0 1-.057.412.27.27 0 0 1-.29-.223zm5.484 3.772a1.28 1.28 0 0 1 .375-1.056.682.682 0 0 1 .507 0c-.29.084-.69.154-.76.542 0 .154-.035.235.035.366.13.224.42.13.58.29a.15.15 0 0 1-.104.142 4.437 4.437 0 0 1-.621-.29zm-.42.813c.29-.12.58-.366.888-.262a1.622 1.622 0 0 1-.888.262zm1.111.116a9.147 9.147 0 0 1-.58 1.108c-.024.058-.117.07-.186.081 0-.165.162-.29.232-.435.247-.319.316-.659.598-.966.07.07-.07.119-.07.212zm.29-.682v.046h-.023v-.058h.046a.07.07 0 0 0-.046 0zm-.104-.32a2.824 2.824 0 0 1-.56-.139c-.12-.119 0-.25 0-.377.162-.261.63-.389.853-.154a1.236 1.236 0 0 1-.29.67zm.258 0a2 2 0 0 1 .186-.493.98.98 0 0 1-.186.494zm.128-.951c-.151-.038-.235-.212-.398-.212a.911.911 0 0 1 .444 0c.058.084-.035.154-.046.226zm.139.35v-.127zm0 .543c0-.046.023-.107.035-.165.058-.058.116.046.14.084a.174.174 0 0 1-.175.081zm.174-.73a1.344 1.344 0 0 1 .174-.436.694.694 0 0 1 .316.046c.024.238.317.555 0 .755-.104.046-.258.154-.374.046a.328.328 0 0 1-.116-.412Zm.853-.329c-.023-.107.105-.023.151-.072l.363.026c-.186-.026-.42.412-.514.046zm.58.151c-.142.05-.246.215-.385.25a.473.473 0 0 1 .406-.267zm-.493.731v.035zm.024.72c0 .023 0 .058-.024.081l-.267-.211a.29.29 0 0 1 .29.13zm-.314-.366a.087.087 0 0 1 .105 0zm-.165-.177c.046-.07.104-.177.188-.177 0 0 0 .024.024.035a.607.607 0 0 1-.212.142zm-.267-.023h-.04l.072-.07c.034.024-.015.047-.024.07zm.035.447c.15-.165.29.093.348.224.177.258.632.496.458.847-.223.2-.58 0-.818.165-.13 0-.351.024-.42-.104a6.674 6.674 0 0 1 .432-1.132zm-.328.224.058-.093a5.13 5.13 0 0 1-.366.841c-.07-.29.223-.508.328-.754zm.542 1.395c-.22 0-.56.143-.772-.046 0-.096-.093-.142-.08-.235.185-.073.35.15.524 0a4.533 4.533 0 0 1 .819.023c.13.035.328-.212.35.035-.092.389-.56.116-.84.235zm.68-1.694v-.035h.023v.035zm.069.74c0 .119.128.165.058.272a.369.369 0 0 1-.058-.272zm.328.708-.058.023c-.061-.046-.038-.177-.023-.247.07.058.127.14.08.224zm.58.29c0 .035-.07.035-.093 0a6.25 6.25 0 0 1-.737-1.413h.047c.29.458.502.966.783 1.413zm.433-1.082a.046.046 0 0 0-.024.046 1.344 1.344 0 0 1-.818-.366v-.058a2.18 2.18 0 0 1 .853.378zm-.305-1.568c.142.035.154.19.165.308a.694.694 0 0 1-.853.624.755.755 0 0 0 .702-.4zm-.255-.046a.798.798 0 0 1 .104.52c-.116.223-.351.223-.56.27a.36.36 0 0 1-.27-.085.119.119 0 0 0-.046-.116c.035-.154-.27-.307-.058-.435.185-.177.63-.58.83-.154zm5.94-.87c-.096.116 0 .304-.13.412 0 .211-.175.316-.329.4-1.39.29-2.756-.165-4.103-.4a14.307 14.307 0 0 0-5.998-.096 28.2 28.2 0 0 0-2.641.624 3.793 3.793 0 0 1-1.637 0c-.42-.2-.246-.74-.374-1.118a6.158 6.158 0 0 0-.093-.812.673.673 0 0 1-.05-.308c.178.024.352.154.54.2.981.19 1.858-.127 2.772-.29a19.957 19.957 0 0 1 2.699-.412c1.053 0 2.13-.072 3.134.105.328 0 .61.096.923.119.655.081 1.265.258 1.93.29a2.684 2.684 0 0 0 .35.06c1.054.166 2.235.46 3.239 0a8.761 8.761 0 0 1-.232 1.225zm-.328-1.437c0 .189-.165.14-.258.212h-.29a.65.65 0 0 1-.035-.331 2.275 2.275 0 0 1 .58.119zm-.13-.29c.13-.128-.035-.87.327-.389 0 .096 0 .235-.081.308-.081.072-.15.139-.247.08zm.948-.116a.68.68 0 0 1-.502.4c0-.29.267-.484.174-.8a.702.702 0 0 0-.737-.239c-.104.073-.058.189-.093.29l-.046.39c-.235 0-.247-.212-.316-.378a.682.682 0 0 1 .362-.612.807.807 0 0 1 .68.023.531.531 0 0 1 .385.247c.175.165.128.461.093.673z" style="fill:#fff;stroke-width:.290194;fill-opacity:1" transform="translate(-2.923 -4.365)"/></svg>